<svg width="512" height="512" viewBox="0 0 512 512" fill="none" xmlns="http://www.w3.org/2000/svg">
<g clip-path="url(#clip0_305_2)">
<path d="M50.4938 460.888L1.50069 182.731C1.02762 180.046 0.732726 177.333 0.617936 174.61C0.265821 159.359 5.44358 144.496 15.1951 132.765C24.9467 121.034 38.6134 113.227 53.6717 110.786L148.215 94.1021L145.655 460.888H50.4938Z" fill="#35495E"/>
<path d="M414.367 448.706C413.565 452.037 411.81 455.063 409.318 457.414C406.826 459.765 403.703 461.341 400.331 461.948L122.086 511.029C113.416 512.542 104.524 512.19 96.0019 509.994C87.4798 507.799 79.5239 503.811 72.665 498.297C65.8062 492.783 60.2021 485.87 56.2266 478.019C52.2512 470.168 49.9958 461.559 49.611 452.767C49.2739 438.148 54.0298 423.866 63.0643 412.367C72.0988 400.869 84.8498 392.869 99.1338 389.738L177.081 411.63H176.993L106.814 424.077C102.948 424.757 99.282 426.285 96.0789 428.553C92.8757 430.82 90.2156 433.771 88.2903 437.19C86.365 440.61 85.2226 444.415 84.9453 448.33C84.668 452.244 85.2629 456.172 86.6869 459.829C89.1092 465.615 93.4517 470.39 98.983 473.348C104.514 476.307 110.896 477.269 117.054 476.072L329.71 438.555L414.367 448.706Z" fill="#2C3E50"/>
<path d="M176.993 411.63L106.814 424.077C102.948 424.757 99.282 426.285 96.0789 428.553C92.8757 430.82 90.2156 433.771 88.2903 437.19C86.365 440.61 85.2226 444.415 84.9453 448.33C84.668 452.244 85.2629 456.172 86.6869 459.829C89.1092 465.615 93.4517 470.39 98.983 473.348C104.514 476.307 110.896 477.269 117.054 476.072L329.71 438.555L176.993 411.63Z" fill="#F9EAB0"/>
<path d="M113.223 292.82L162.278 14.6273C163.121 10.0319 165.74 5.95328 169.568 3.27377C173.396 0.59426 178.124 -0.470788 182.731 0.308987L458.831 48.9931C473.901 51.4358 487.578 59.2476 497.337 70.9865C507.096 82.7255 512.28 97.5988 511.929 112.861C511.809 115.572 511.514 118.273 511.047 120.947L461.992 399.139L113.223 292.82Z" fill="#E64C3C"/>
<path d="M401.108 92.4602C400.587 92.4602 400.075 92.416 399.563 92.3278L199.609 57.0704C197.435 56.5341 195.546 55.1914 194.324 53.3141C193.103 51.4369 192.64 49.1655 193.031 46.9602C193.421 44.7549 194.636 42.7804 196.427 41.4369C198.219 40.0933 200.455 39.4811 202.681 39.7242L402.626 74.9374C404.802 75.3185 406.755 76.5011 408.101 78.2519C409.447 80.0027 410.088 82.1944 409.898 84.3947C409.707 86.5949 408.699 88.6437 407.071 90.1368C405.444 91.63 403.316 92.459 401.108 92.4602ZM358.665 129.766C358.147 129.766 357.629 129.719 357.12 129.624L226.719 106.664C224.463 106.206 222.475 104.885 221.178 102.983C219.882 101.081 219.38 98.7473 219.78 96.4802C220.179 94.2131 221.449 92.1918 223.317 90.8472C225.186 89.5025 227.505 88.941 229.782 89.2823L360.192 112.234C362.379 112.604 364.347 113.783 365.704 115.538C367.061 117.293 367.708 119.494 367.515 121.704C367.323 123.914 366.305 125.971 364.665 127.464C363.025 128.958 360.883 129.78 358.665 129.766Z" fill="#3F5C6C"/>
<path d="M377.001 169.155L194.45 136.901C189.649 136.052 185.069 139.257 184.221 144.058L168.861 230.987C168.013 235.788 171.217 240.368 176.018 241.216L358.57 273.47C363.371 274.319 367.951 271.114 368.799 266.313L384.158 179.384C385.007 174.583 381.802 170.003 377.001 169.155Z" fill="#ECF0F1"/>
<path d="M511.912 112.817C511.807 115.541 511.512 118.255 511.029 120.938L461.948 399.095L393.887 378.35L433.346 154.659L442.703 101.87L452.237 47.8455L458.858 48.9931C473.911 51.4461 487.57 59.2561 497.319 70.9844C507.068 82.7127 512.251 97.5691 511.912 112.817Z" fill="#C03A2B"/>
<path d="M409.777 327.15L133.65 278.51C129.047 277.725 124.321 278.795 120.505 281.485C116.689 284.176 114.094 288.269 113.289 292.868C112.484 297.468 113.533 302.199 116.207 306.026C118.881 309.854 122.963 312.466 127.559 313.291L405.716 362.284C409.578 362.984 413.238 364.529 416.432 366.81C419.626 369.091 422.276 372.05 424.192 375.476C426.107 378.902 427.241 382.709 427.511 386.625C427.781 390.541 427.181 394.468 425.754 398.124C423.346 403.896 419.015 408.658 413.497 411.603C407.978 414.547 401.612 415.492 395.476 414.279L118.378 365.462C116.094 365.056 113.753 365.104 111.488 365.604C109.223 366.103 107.078 367.043 105.176 368.371C103.274 369.699 101.653 371.388 100.404 373.343C99.1553 375.298 98.3037 377.479 97.8979 379.763C97.4922 382.047 97.5402 384.388 98.0393 386.653C98.5384 388.918 99.4788 391.063 100.807 392.965C102.135 394.866 103.824 396.488 105.779 397.737C107.733 398.985 109.915 399.837 112.199 400.243L390.444 449.236C399.107 450.755 407.994 450.408 416.513 448.22C425.031 446.032 432.985 442.053 439.844 436.548C446.703 431.042 452.309 424.137 456.288 416.294C460.267 408.45 462.527 399.848 462.919 391.062C463.254 375.792 458.061 360.916 448.296 349.172C438.53 337.428 424.851 329.607 409.777 327.15Z" fill="#802F34"/>
<path d="M425.754 398.124C423.346 403.896 419.015 408.658 413.497 411.603C407.978 414.547 401.612 415.492 395.476 414.279L118.378 365.462L127.559 313.291L405.716 362.284C409.578 362.984 413.238 364.529 416.432 366.81C419.626 369.091 422.276 372.05 424.192 375.476C426.107 378.902 427.241 382.709 427.511 386.625C427.781 390.541 427.181 394.468 425.754 398.124Z" fill="#F9EAB0"/>
</g>
<defs>
<clipPath id="clip0_305_2">
<rect width="512" height="512" fill="white"/>
</clipPath>
</defs>
</svg>
