<svg width="24" height="24" viewBox="0 0 24 24" fill="none" xmlns="http://www.w3.org/2000/svg">
<path d="M11.3668 9.19482V17.2839C11.3668 17.9634 11.9176 18.5142 12.5971 18.5142H22.7695C23.449 18.5142 24 17.9634 24 17.2839V9.19482H11.3668Z" fill="#ED5176"/>
<path d="M23.5206 6.99111C22.706 6.99111 22.0457 6.33083 22.0457 5.51619V2.492C22.0457 2.22031 21.8252 2 21.5535 2H20.5234C20.5056 2 20.4882 2.00094 20.471 2.00277C20.7182 2.02892 20.9108 2.23784 20.9108 2.492V5.51619C20.9108 6.33083 21.5711 6.99111 22.3857 6.99111C22.6505 6.99111 22.8651 7.2057 22.8651 7.47045V17.2841C22.8651 17.9636 22.3143 18.5143 21.6346 18.5143H22.7695C23.449 18.5143 24 17.9636 24 17.2841V7.47045C24 7.20589 23.7854 6.99111 23.5206 6.99111Z" fill="#BA365F"/>
<path d="M23.5206 6.99111C22.706 6.99111 22.0458 6.33083 22.0458 5.51619V2.492C22.0458 2.22031 21.8253 2 21.5536 2H20.5234C20.2517 2 20.0314 2.22031 20.0314 2.492V4.26228C20.0314 5.54984 19.0109 6.62708 17.7236 6.64869C16.4085 6.67048 15.3355 5.61102 15.3355 4.30109V2.492C15.3355 2.22031 15.115 2 14.8433 2H13.8132C13.5414 2 13.3212 2.22031 13.3212 2.492V5.51637C13.3212 6.33083 12.6609 6.99106 11.8462 6.99106C11.5814 6.99106 11.3667 7.20589 11.3667 7.47064V9.19494L17.6832 12.2255L24 9.19494V7.47045C24 7.20589 23.7854 6.99111 23.5206 6.99111Z" fill="#E9E9EA"/>
<path d="M23.5206 6.99111C22.706 6.99111 22.0457 6.33083 22.0457 5.51619V2.492C22.0457 2.22031 21.8252 2 21.5535 2H20.5234C20.519 2 20.5146 2.00019 20.5102 2.00019H20.5094C20.4966 2.00056 20.4838 2.00145 20.471 2.00277C20.7182 2.02892 20.9108 2.23808 20.9108 2.492V5.51637C20.9108 6.33083 21.5711 6.99106 22.3857 6.99106C22.6505 6.99106 22.8651 7.20589 22.8651 7.47064V9.73948L24 9.19494V7.47045C24 7.20589 23.7854 6.99111 23.5206 6.99111Z" fill="#C5C4CC"/>
<path d="M5.36556 22.5045H4.28814C4.18567 22.5045 4.08741 22.4638 4.01496 22.3913C3.94251 22.3188 3.90181 22.2206 3.90179 22.1181V3.84464C3.90178 3.7939 3.91177 3.74366 3.93118 3.69677C3.95059 3.64989 3.97904 3.60729 4.01492 3.57141C4.0508 3.53553 4.09339 3.50707 4.14027 3.48765C4.18715 3.46824 4.2374 3.45825 4.28814 3.45825H5.36556C5.57884 3.45825 5.75172 3.63131 5.75172 3.84464V22.1182C5.75172 22.3315 5.57889 22.5045 5.36556 22.5045V22.5045Z" fill="#E9E9EA"/>
<path d="M3.90179 9.49097H5.75172V10.5775H3.90179V9.49097Z" fill="#C5C4CC"/>
<path d="M8.27489 9.49082H1.37864C0.617203 9.49082 0 8.87357 0 8.11199C0 7.3506 0.61725 6.7334 1.37859 6.7334H8.27489C9.03623 6.7334 9.65348 7.3506 9.65348 8.11199C9.65348 8.87352 9.03623 9.49082 8.27489 9.49082Z" fill="#575B7A"/>
<path d="M6.47391 4.9165H3.17958C2.59458 4.9165 2.1203 5.39074 2.1203 5.97574V6.73343H7.53329V5.97574C7.53329 5.39074 7.05905 4.9165 6.47382 4.9165H6.47391Z" fill="#6A7193"/>
<path d="M8.27489 16.4719H1.37864C0.617203 16.4719 0 17.0892 0 17.8505C0 18.6119 0.61725 19.2291 1.37859 19.2291H8.27489C9.03623 19.2291 9.65348 18.6119 9.65348 17.8505C9.65348 17.0892 9.03623 16.4719 8.27489 16.4719Z" fill="#575B7A"/>
<path d="M8.27489 6.7334H7.11609C7.87743 6.7334 8.49468 7.35065 8.49468 8.11199C8.49468 8.87357 7.87743 9.49082 7.11609 9.49082H8.27493C9.03628 9.49082 9.65353 8.87357 9.65353 8.11204C9.65353 7.35065 9.03628 6.73345 8.27493 6.73345L8.27489 6.7334ZM8.27489 16.4719H7.11609C7.87743 16.4719 8.49468 17.0891 8.49468 17.8505C8.49468 18.6119 7.87743 19.2291 7.11609 19.2291H8.27493C9.03628 19.2291 9.65353 18.6119 9.65353 17.8505C9.65353 17.0891 9.03623 16.4719 8.27489 16.4719Z" fill="#252D4C"/>
<path d="M6.47391 21.0464H3.17958C2.59458 21.0464 2.1203 20.5721 2.1203 19.9871V19.2292H7.53329V19.9871C7.53329 20.5721 7.05905 21.0464 6.47382 21.0464H6.47391Z" fill="#6A7193"/>
<path d="M6.47389 4.9165H5.315C5.9 4.9165 6.37424 5.39074 6.37424 5.97574V6.73343H7.53331V5.97574C7.53331 5.39074 7.05908 4.9165 6.47385 4.9165H6.47389ZM6.37424 19.2291V19.987C6.37424 20.5718 5.9 21.0462 5.315 21.0462H6.47385C7.05885 21.0462 7.53331 20.5719 7.53331 19.987V19.2291H6.37424Z" fill="#575B7A"/>
<path d="M8.13611 22.0426H21.1932C21.757 22.0426 22.214 21.5856 22.214 21.0218V15.0156C22.214 14.4795 21.7795 14.0449 21.2433 14.0449H21.0183C20.8813 14.0449 20.7476 14.0878 20.6362 14.1676C20.5247 14.2474 20.4411 14.3601 20.3969 14.4899C20.0411 15.5354 19.0591 16.2385 17.9546 16.2385C16.8688 16.2385 15.8993 15.5588 15.5292 14.538C15.4769 14.3935 15.3813 14.2687 15.2555 14.1804C15.1297 14.0922 14.9797 14.0449 14.8261 14.0449H13.9464C13.7707 14.0449 13.5982 14.0926 13.4475 14.183L7.02611 18.0321C6.70618 18.2238 6.44138 18.4951 6.25752 18.8197C6.07367 19.1442 5.97704 19.5108 5.97705 19.8838C5.97705 21.076 6.94371 22.0426 8.13611 22.0426Z" fill="#8CBAFA"/>
<path d="M21.2433 14.0449H21.0183C20.8449 14.0449 20.6834 14.1129 20.564 14.2275C20.8085 14.4038 20.9678 14.6911 20.9678 15.0156V21.022C20.9678 21.5856 20.5107 22.0426 19.947 22.0426H21.1932C21.7569 22.0426 22.214 21.5856 22.214 21.022V15.0156C22.214 14.4795 21.7794 14.0449 21.2433 14.0449Z" fill="#5692D8"/>
<path d="M12.872 14.5278L11.6364 15.2685L16.363 22.0425H18.1156L12.872 14.5278ZM12.8835 22.0425H14.636L10.4185 15.9983L9.18292 16.739L12.8835 22.0425Z" fill="#F9AA4B"/>
<path d="M5.97858 19.9404C6.00858 21.1064 6.96258 22.0426 8.13609 22.0426H21.1932C21.7569 22.0426 22.214 21.5856 22.214 21.0218V19.9404H5.97858Z" fill="#E9E9EA"/>
<path d="M20.9678 21.022C20.9678 21.5854 20.5113 22.0423 19.9479 22.0426H21.1932C21.7569 22.0426 22.214 21.5856 22.214 21.022V19.9404H20.9677L20.9678 21.022Z" fill="#C5C4CC"/>
<path d="M9.74087 17.8121L13.5681 15.518C13.7035 15.4369 13.8155 15.3221 13.8933 15.1848C13.9711 15.0475 14.012 14.8924 14.012 14.7346V14.0447H13.9464C13.7706 14.0447 13.5981 14.0925 13.4475 14.183L8.71032 17.0223C8.51002 17.1424 8.45907 17.4104 8.60138 17.5956C8.87129 17.9466 9.36109 18.0396 9.74087 17.812V17.8121Z" fill="#E9E9EA"/>
<path d="M17.9073 9.99599H17.8632V8.57638C17.8632 8.26892 17.6131 8.0188 17.3056 8.0188H17.0623C17.0148 8.01879 16.9677 8.02816 16.9237 8.04636C16.8798 8.06456 16.8398 8.09124 16.8062 8.12487C16.7726 8.15851 16.7459 8.19844 16.7277 8.24239C16.7095 8.28633 16.7001 8.33344 16.7001 8.381C16.7001 8.58116 16.8623 8.74316 17.0623 8.74316H17.139V9.99599H17.0947C17.0472 9.99598 17.0001 10.0053 16.9561 10.0235C16.9122 10.0417 16.8722 10.0684 16.8386 10.1021C16.805 10.1357 16.7783 10.1756 16.7601 10.2196C16.7419 10.2635 16.7325 10.3106 16.7325 10.3582C16.7325 10.5583 16.8947 10.7203 17.0947 10.7203H17.9073C17.9549 10.7204 18.002 10.711 18.0459 10.6928C18.0899 10.6746 18.1298 10.6479 18.1634 10.6143C18.1971 10.5807 18.2238 10.5408 18.242 10.4968C18.2602 10.4529 18.2695 10.4058 18.2695 10.3582C18.2695 10.3106 18.2602 10.2635 18.242 10.2196C18.2238 10.1756 18.1971 10.1357 18.1635 10.102C18.1298 10.0684 18.0899 10.0417 18.0459 10.0235C18.002 10.0053 17.9549 9.99597 17.9073 9.99599Z" fill="#575B7A"/>
</svg>
