<svg width="24" height="24" viewBox="0 0 24 24" fill="none" xmlns="http://www.w3.org/2000/svg">
<g clip-path="url(#clip0_2008_155)">
<path fill-rule="evenodd" clip-rule="evenodd" d="M23.5932 19.3221H21.1526C21.0447 19.3221 20.9412 19.2792 20.8649 19.203C20.7886 19.1267 20.7458 19.0232 20.7458 18.9153C20.7458 18.8074 20.7886 18.704 20.8649 18.6277C20.9412 18.5514 21.0447 18.5085 21.1526 18.5085H23.5932C23.7011 18.5085 23.8046 18.5514 23.8809 18.6277C23.9572 18.704 24 18.8074 24 18.9153C24 19.0232 23.9572 19.1267 23.8809 19.203C23.8046 19.2792 23.7011 19.3221 23.5932 19.3221Z" fill="#7F8C8D"/>
<path fill-rule="evenodd" clip-rule="evenodd" d="M3.89288 4.58042C4.79593 2.00632 8.04204 0.140017 11.878 0.203475C15.5512 0.26856 18.6305 2.08605 19.5946 4.52998L3.89288 4.58042Z" fill="#BDC3C7"/>
<path fill-rule="evenodd" clip-rule="evenodd" d="M19.1187 17.2883L23.0128 7.57075C23.0684 7.42627 23.0816 7.26892 23.0509 7.11717C23.0202 6.96542 22.9469 6.82558 22.8395 6.71408C21.8575 5.68533 18.6712 3.05103 11.7966 3.05103C4.92206 3.05103 1.73576 5.68533 0.75379 6.71204C0.646387 6.82355 0.57303 6.96339 0.542335 7.11513C0.511639 7.26688 0.52488 7.42424 0.580502 7.56872L4.4746 17.2883H19.1187Z" fill="#ECF0F1"/>
<path fill-rule="evenodd" clip-rule="evenodd" d="M15.4577 8.33916V9.96628C15.4577 10.0742 15.4148 10.1776 15.3385 10.2539C15.2622 10.3302 15.1588 10.3731 15.0509 10.3731H13.017V12.407C13.017 12.5148 12.9741 12.6183 12.8978 12.6946C12.8215 12.7709 12.7181 12.8137 12.6102 12.8137H10.9831C10.8752 12.8137 10.7717 12.7709 10.6954 12.6946C10.6192 12.6183 10.5763 12.5148 10.5763 12.407V10.3731H8.5424C8.43452 10.3731 8.33105 10.3302 8.25476 10.2539C8.17848 10.1776 8.13562 10.0742 8.13562 9.96628V8.33916C8.13562 8.23127 8.17848 8.12781 8.25476 8.05152C8.33105 7.97523 8.43452 7.93238 8.5424 7.93238H10.5763V5.89848C10.5763 5.79059 10.6192 5.68713 10.6954 5.61084C10.7717 5.53456 10.8752 5.4917 10.9831 5.4917H12.6102C12.7181 5.4917 12.8215 5.53456 12.8978 5.61084C12.9741 5.68713 13.017 5.79059 13.017 5.89848V7.93238H15.0509C15.1588 7.93238 15.2622 7.97523 15.3385 8.05152C15.4148 8.12781 15.4577 8.23127 15.4577 8.33916Z" fill="#E64C3C"/>
<path d="M5.69489 14.0339H4.88133C4.65667 14.0339 4.47455 14.2161 4.47455 14.4407V23.3899C4.47455 23.6145 4.65667 23.7966 4.88133 23.7966H5.69489C5.91955 23.7966 6.10167 23.6145 6.10167 23.3899V14.4407C6.10167 14.2161 5.91955 14.0339 5.69489 14.0339Z" fill="#3B97D3"/>
<path d="M1.22034 15.6611H0.40678C0.182121 15.6611 0 15.8433 0 16.0679V21.7628C0 21.9875 0.182121 22.1696 0.40678 22.1696H1.22034C1.445 22.1696 1.62712 21.9875 1.62712 21.7628V16.0679C1.62712 15.8433 1.445 15.6611 1.22034 15.6611Z" fill="#3B97D3"/>
<path fill-rule="evenodd" clip-rule="evenodd" d="M1.62714 17.2883H4.47459V20.5426H1.62714V17.2883Z" fill="#2980BA"/>
<path fill-rule="evenodd" clip-rule="evenodd" d="M19.1186 17.2883V20.5425C19.1186 20.974 18.9472 21.3879 18.6421 21.693C18.3369 21.9982 17.9231 22.1696 17.4915 22.1696H6.10168V15.6611H17.4915C17.9231 15.6611 18.3369 15.8326 18.6421 16.1377C18.9472 16.4428 19.1186 16.8567 19.1186 17.2883Z" fill="#B0D3F0"/>
<path fill-rule="evenodd" clip-rule="evenodd" d="M19.1187 17.2883H20.339C20.5548 17.2883 20.7617 17.374 20.9143 17.5266C21.0668 17.6792 21.1526 17.8861 21.1526 18.1019V19.729C21.1526 19.9448 21.0668 20.1517 20.9143 20.3043C20.7617 20.4569 20.5548 20.5426 20.339 20.5426H19.1187V17.2883Z" fill="#95A5A5"/>
<path fill-rule="evenodd" clip-rule="evenodd" d="M8.13558 15.6611V17.695C8.13558 17.8029 8.09272 17.9064 8.01644 17.9827C7.94015 18.059 7.83669 18.1018 7.7288 18.1018C7.62092 18.1018 7.51745 18.059 7.44116 17.9827C7.36488 17.9064 7.32202 17.8029 7.32202 17.695V15.6611H8.13558ZM9.7627 15.6611V16.8815C9.7627 16.9894 9.71984 17.0928 9.64356 17.1691C9.56727 17.2454 9.4638 17.2883 9.35592 17.2883C9.24804 17.2883 9.14457 17.2454 9.06828 17.1691C8.992 17.0928 8.94914 16.9894 8.94914 16.8815V15.6611H9.7627ZM11.3898 15.6611V17.695C11.3898 17.8029 11.347 17.9064 11.2707 17.9827C11.1944 18.059 11.0909 18.1018 10.983 18.1018C10.8752 18.1018 10.7717 18.059 10.6954 17.9827C10.6191 17.9064 10.5763 17.8029 10.5763 17.695V15.6611H11.3898ZM13.0169 15.6611V16.8815C13.0169 16.9894 12.9741 17.0928 12.8978 17.1691C12.8215 17.2454 12.718 17.2883 12.6102 17.2883C12.5023 17.2883 12.3988 17.2454 12.3225 17.1691C12.2462 17.0928 12.2034 16.9894 12.2034 16.8815V15.6611H13.0169ZM14.6441 15.6611V17.695C14.6441 17.8029 14.6012 17.9064 14.5249 17.9827C14.4486 18.059 14.3452 18.1018 14.2373 18.1018C14.1294 18.1018 14.0259 18.059 13.9496 17.9827C13.8734 17.9064 13.8305 17.8029 13.8305 17.695V15.6611H14.6441ZM16.2712 15.6611V16.8815C16.2712 16.9894 16.2283 17.0928 16.152 17.1691C16.0757 17.2454 15.9723 17.2883 15.8644 17.2883C15.7565 17.2883 15.653 17.2454 15.5768 17.1691C15.5005 17.0928 15.4576 16.9894 15.4576 16.8815V15.6611H16.2712Z" fill="#3B97D3"/>
</g>
<defs>
<clipPath id="clip0_2008_155">
<rect width="24" height="24" fill="white"/>
</clipPath>
</defs>
</svg>
