<svg width="24" height="24" viewBox="0 0 24 24" fill="none" xmlns="http://www.w3.org/2000/svg">
<g clip-path="url(#clip0_2008_139)">
<path d="M10.3183 24C8.34323 24 6.73645 22.3931 6.73645 20.4181V14.238C6.73645 13.8265 7.07006 13.4929 7.48158 13.4929C7.89309 13.4929 8.2267 13.8265 8.2267 14.238V20.4181C8.2267 21.5714 9.165 22.5097 10.3183 22.5097C11.4715 22.5097 12.4098 21.5714 12.4098 20.4181V18.9275C12.4098 16.7547 14.1775 14.987 16.3504 14.987H19.933C20.3445 14.987 20.6781 15.3206 20.6781 15.7321C20.6781 16.1437 20.3445 16.4773 19.933 16.4773H16.3504C14.9993 16.4773 13.9001 17.5764 13.9001 18.9275V20.4181C13.9002 22.3931 12.2934 24 10.3183 24Z" fill="#60B8FF"/>
<path d="M19.977 14.9893C19.9955 15.0546 20.005 15.1222 20.0052 15.1901C20.0052 15.6016 19.6715 15.9352 19.26 15.9352H15.6774C14.3263 15.9352 13.2272 17.0344 13.2272 18.3854V19.876C13.2272 21.8511 11.6203 23.4579 9.64531 23.4579C8.95193 23.4579 8.30436 23.2592 7.75531 22.9168C8.40626 23.5844 9.31442 24 10.3183 24C12.2934 24 13.9002 22.3932 13.9002 20.4181V18.9276C13.9002 17.5765 14.9993 16.4773 16.3504 16.4773H19.933C20.3445 16.4773 20.6781 16.1437 20.6781 15.7322C20.6781 15.3355 20.3679 15.0121 19.977 14.9893Z" fill="#22A7FF"/>
<path d="M20.6924 18.7506C22.3319 18.7506 23.661 17.4215 23.661 15.782C23.661 14.1425 22.3319 12.8135 20.6924 12.8135C19.0529 12.8135 17.7239 14.1425 17.7239 15.782C17.7239 17.4215 19.0529 18.7506 20.6924 18.7506Z" fill="#AB9FAA"/>
<path d="M22.273 13.2698C22.3944 13.5989 22.4563 13.947 22.456 14.2978C22.456 15.9373 21.127 17.2664 19.4875 17.2664C18.928 17.2671 18.3799 17.1089 17.9069 16.8102C18.3251 17.9429 19.4144 18.7507 20.6924 18.7507C22.3319 18.7507 23.661 17.4216 23.661 15.7821C23.661 14.7237 23.1067 13.7954 22.273 13.2698Z" fill="#928392"/>
<path d="M20.6924 17.2662C21.5122 17.2662 22.1767 16.6017 22.1767 15.7819C22.1767 14.9622 21.5122 14.2976 20.6924 14.2976C19.8727 14.2976 19.2081 14.9622 19.2081 15.7819C19.2081 16.6017 19.8727 17.2662 20.6924 17.2662Z" fill="#D8D1D7"/>
<path d="M21.279 14.4182C21.3703 14.6142 21.4176 14.8278 21.4174 15.044C21.4174 15.8638 20.7528 16.5283 19.9331 16.5283C19.7247 16.5283 19.5265 16.4853 19.3466 16.4077C19.5827 16.9146 20.0964 17.2662 20.6925 17.2662C21.5122 17.2662 22.1767 16.6017 22.1767 15.7819C22.1768 15.1705 21.807 14.6456 21.279 14.4182Z" fill="#CAC0C9"/>
<path d="M7.48157 14.5173C5.07937 14.5173 2.96418 12.8976 2.33793 10.5783L0.415637 3.45984C0.237278 2.79932 0.373543 2.10899 0.789512 1.56585C1.20548 1.02271 1.83637 0.711182 2.52056 0.711182H4.27162C4.47079 0.711182 4.63218 0.872619 4.63218 1.07174C4.63218 1.27087 4.47079 1.43231 4.27162 1.43231H2.52051C2.06264 1.43231 1.64034 1.64081 1.362 2.00432C1.08361 2.36784 0.992387 2.82988 1.11173 3.27192L3.03407 10.3904C3.57562 12.3957 5.40445 13.7962 7.48157 13.7962C9.5587 13.7962 11.3876 12.3957 11.9291 10.3904L13.8514 3.27192C13.9708 2.82988 13.8796 2.36784 13.6012 2.00432C13.3228 1.64081 12.9006 1.43231 12.4427 1.43231H10.6916C10.4924 1.43231 10.3311 1.27087 10.3311 1.07174C10.3311 0.872619 10.4924 0.711182 10.6916 0.711182H12.4427C13.1268 0.711182 13.7578 1.02271 14.1737 1.5659C14.5897 2.10909 14.726 2.79942 14.5476 3.45988L12.6253 10.5784C11.999 12.8975 9.88387 14.5173 7.48157 14.5173Z" fill="#928392"/>
<path d="M7.48158 14.902C4.90594 14.902 2.63812 13.1653 1.96664 10.6787L1.7242 9.78094C1.6169 9.38362 1.85198 8.97459 2.2493 8.8673C2.6467 8.76009 3.05564 8.99512 3.16294 9.39239L3.40537 10.2902C3.90169 12.1281 5.57789 13.4117 7.48158 13.4117C9.38531 13.4117 11.0615 12.1281 11.5578 10.2902L11.8003 9.39239C11.9075 8.99512 12.3165 8.75991 12.7139 8.8673C13.1112 8.97455 13.3463 9.38362 13.239 9.78094L12.9966 10.6787C12.3251 13.1654 10.0573 14.902 7.48158 14.902Z" fill="#60B8FF"/>
<path d="M12.8279 8.90918C12.837 8.99896 12.8297 9.08966 12.8064 9.17684L12.5639 10.0746C11.8925 12.5612 9.6246 14.2979 7.04896 14.2979C5.29598 14.2979 3.68615 13.4929 2.62457 12.1951C3.64692 13.8431 5.4704 14.9021 7.48162 14.9021C10.0573 14.9021 12.3251 13.1654 12.9966 10.6788L13.239 9.78101C13.3356 9.42349 13.1544 9.0573 12.8279 8.90918Z" fill="#22A7FF"/>
<path d="M4.30029 2.14697C4.89316 2.14697 5.37378 1.66635 5.37378 1.07348C5.37378 0.480615 4.89316 0 4.30029 0C3.70742 0 3.22681 0.480615 3.22681 1.07348C3.22681 1.66635 3.70742 2.14697 4.30029 2.14697Z" fill="#BBB0BA"/>
<path d="M4.61821 0.0478516C4.73501 0.223513 4.79718 0.429825 4.79689 0.640773C4.79689 1.23365 4.31628 1.71426 3.72341 1.71426C3.61274 1.71426 3.50596 1.69748 3.40546 1.66635C3.59774 1.95595 3.92661 2.14691 4.30025 2.14691C4.89313 2.14691 5.37374 1.6663 5.37374 1.07343C5.37374 0.591273 5.05583 0.183367 4.61821 0.0478516Z" fill="#AB9FAA"/>
<path d="M10.5499 2.14697C11.1427 2.14697 11.6233 1.66635 11.6233 1.07348C11.6233 0.480615 11.1427 0 10.5499 0C9.95699 0 9.47638 0.480615 9.47638 1.07348C9.47638 1.66635 9.95699 2.14697 10.5499 2.14697Z" fill="#BBB0BA"/>
<path d="M10.8678 0.0478516C10.9846 0.223513 11.0468 0.429825 11.0465 0.640773C11.0465 1.23365 10.5659 1.71426 9.97298 1.71426C9.86231 1.71426 9.75553 1.69748 9.65503 1.66635C9.84731 1.95595 10.1762 2.14691 10.5498 2.14691C11.1427 2.14691 11.6233 1.6663 11.6233 1.07343C11.6234 0.591273 11.3055 0.183367 10.8678 0.0478516Z" fill="#AB9FAA"/>
</g>
<defs>
<clipPath id="clip0_2008_139">
<rect width="24" height="24" fill="white"/>
</clipPath>
</defs>
</svg>
